<svg xmlns="http://www.w3.org/2000/svg" width="260" height="248.484" viewBox="0 0 260 248.484"><defs><style>.a{fill:#e60082;}</style></defs><path class="a" d="M202.44,65.338c-.093,28.354-25.3,64.344-54.2,68.926-11.085,1.672-24.654-1.636-31.442-11.123-4.129-6-6.431-14.629-2.475-21.2l.808-1.159a14.274,14.274,0,0,0,.164,10.433,20.8,20.8,0,0,0,9.544,11.106,28.957,28.957,0,0,0,19.945,1.638c21.047-5.711,39.753-37.15,39.016-58.236-.079-.542-.07-1.5-.178-2.035-.045-.27-.18-1.175-.216-1.45-1.157-5.467-3.741-10.749-8.994-13.138a23.889,23.889,0,0,0-9.562-1.935,49.247,49.247,0,0,0-11.434,1.128,93.76,93.76,0,0,0-16.056,4.978c7.19,3.288,16.446,5.395,28.072,6.694-40.873-4.567-55.4,7.038-59.965,47.91,1.532-13.709,1.241-24.45-1.36-32.85-31.958,31.282-33.813,76.548-34.07,83.61-.037.993-.054,1.81-.062,2.342-7.689-29.363-2.46-62.247,14.84-87.41q1.754-2.554,3.653-5a9.343,9.343,0,0,0-3.589-14.3c-7.08-3.1-16.1-5.1-27.321-6.358,40.872,4.567,55.4-7.038,59.964-47.91-1.587,14.2-1.22,25.224,1.649,33.751a5.918,5.918,0,0,0,8.193,3.409,108.113,108.113,0,0,1,16.015-6.223c20.464-6.259,45.17-5,55.3,17.094a43.981,43.981,0,0,1,3.3,11.109c.06.525.246,2.129.3,2.686.108,1.006.122,2.486.16,3.51M4,210.049v-7.6H19.429c5.969,0,11.16-2.336,11.16-9.2S25.4,184.1,19.429,184.1H0v25.954ZM19.688,187.84c3.819,0,6.785,1.371,6.785,5.413,0,4.079-2.966,5.45-6.785,5.45H4V187.84Zm45.2,22.209V184.1h-4v10.715H38.489V184.1h-4v25.954h4V198.556H60.883v11.494Zm9.012,0v-7.6H89.323c5.97,0,11.161-2.336,11.161-9.2S95.293,184.1,89.323,184.1H69.895v25.954ZM89.583,187.84c3.819,0,6.785,1.371,6.785,5.413,0,4.079-2.966,5.45-6.785,5.45H73.9V187.84Zm39.3,14.126c2.522-7.971-4.153-11.938-12.606-11.938-8.787,0-13.015,4.708-13.015,10.419,0,6.563,4.857,10.159,14.682,10.159a38.7,38.7,0,0,0,11.235-1.557l-.779-3.485a43.09,43.09,0,0,1-10.6,1.335c-6.3,0-9.492-1.705-10.233-4.932Zm-21.394-3c.741-3.078,3-5.3,8.972-5.3,5.45,0,9.121,1.742,8.528,5.3Zm26.215,11.086h4V197.072c2.744-2.781,7.194-3.485,11.012-3.115l.186-3.893a14.57,14.57,0,0,0-11.2,3.745l-.038-.038-.111-3.485-3.857.445Zm41.713-6.488L165.04,196.7l9.381-6.118,9.826-6.488h-5.933l-16.277,10.715h-5.154V184.1h-4v25.954h4V198.556H162l16.908,11.494H185.1Zm38.34,3a8.47,8.47,0,0,1-2.114.334c-1.632,0-1.965-.779-1.965-2.224v-5.488c0-5.228-3.3-9.158-12.643-9.158a34.752,34.752,0,0,0-9.975,1.408l1.261,3.486a30.861,30.861,0,0,1,8.714-1.15c6.34,0,8.305,2.039,8.639,4.894a50.657,50.657,0,0,0-10.2-1.074c-4.746,0-9.826,1.26-9.826,6.117,0,4.486,3.967,6.9,9.64,6.9,4.227,0,8.676-1.668,10.567-4,.074,2.076.408,4,4.117,4a16.6,16.6,0,0,0,3.782-.556Zm-24.027-3.115c0-2.484,2.892-3.151,5.562-3.151h10.382v2.447c-.742,2.484-5.45,4.45-9.678,4.45-3.559,0-6.267-1.187-6.267-3.745M221.661,183.8h-4v4.449h4Zm0,26.25V190.287l-4,.445v19.318Zm5.115-12.606c0,2.706,1.595,4.561,4.153,5.6a6.373,6.373,0,0,0-3.337,4.523,2.578,2.578,0,0,0,2.484,2.484,58.028,58.028,0,0,1,10.938-1.038c3.93,0,7.23.445,7.23,2.076,0,2.188-5.265,2.558-8.677,2.558a56.8,56.8,0,0,1-13.311-1.372l-.779,3.522c1.373.446,5.859,1.558,13.274,1.558,3.819,0,13.607-.446,13.607-6.415,0-3.856-4.116-5.006-8.825-5.006A44.644,44.644,0,0,0,231,207.825c-.371-1.3.853-3.225,1.928-4.153a23.271,23.271,0,0,0,5.859.63c6.934,0,12.014-1.964,12.014-6.86,0-2.632-1.669-4.56-4.19-5.709a57.1,57.1,0,0,1,5.9-.26l-.222-2.448a33.947,33.947,0,0,0-9.344,1.373,24.387,24.387,0,0,0-4.153-.371c-6.711,0-12.014,2.521-12.014,7.415m4.079,0c0-2.447,3.486-3.671,7.935-3.671s7.935,1.224,7.935,3.671c0,2.485-3.411,3.523-7.935,3.523s-7.935-1.038-7.935-3.523M260,183.8h-4v4.449h4Zm0,26.25V190.287l-4,.445v19.318ZM78.907,247.981v-1.59c0-.291-.106-.424-.372-.424H63.516v-7.628h14.7c.45,0,.662-.212.662-.637V226.816a.555.555,0,0,0-.637-.609H61.45c-.238,0-.371.106-.371.4v1.59a.355.355,0,0,0,.371.4H76.417v7.443H61.689c-.423,0-.635.186-.635.663v11.1q0,.556.635.556H78.536c.266,0,.372-.106.372-.371m40.126-.212V226.816c0-.424-.212-.609-.637-.609H101.761c-.4,0-.583.185-.583.609v20.953c0,.423.186.583.637.583H118.37c.451,0,.663-.186.663-.583m-2.49-1.8H103.668v-17.35h12.874Zm42.59,2.014v-1.59c0-.291-.107-.424-.372-.424H143.741v-7.628h14.7c.451,0,.662-.212.662-.637V226.816a.554.554,0,0,0-.635-.609H141.675c-.239,0-.371.106-.371.4v1.59a.355.355,0,0,0,.371.4h14.967v7.443H141.913c-.423,0-.636.186-.636.663v11.1q0,.556.636.556h16.848c.265,0,.372-.106.372-.371m40.019.106V226.525a.35.35,0,0,0-.4-.4h-1.723c-.264,0-.371.106-.371.4v12.608h-12.9V226.551c0-.291-.132-.423-.4-.423h-1.7c-.291,0-.4.132-.4.4v14.384c0,.45.186.636.636.636h14.755v6.569c0,.265.107.371.371.371h1.723a.375.375,0,0,0,.4-.4"/></svg>